Super 8 (2011)
-----------------------------------------------------------------------------------
During the summer of 1979, a group of friends witness a train crash and investigate subsequent unexplained events in their small town.
-----------------------------------------------------------------------------------

General
Format                                   : MPEG-4
File size                                : 1.10 GiB
Duration                                 : 1h 51mn
Overall bit rate                         : 1 414 Kbps
Movie name                               : Super 8
Genre                                    : SciFi
Recorded date                            : 2011
-----------------------------------------------------------------------------------
Video
ID                                       : 1
Format                                   : AVC
Duration                                 : 1h 51mn
Bit rate                                 : 1 298 Kbps
Maximum bit rate                         : 5 842 Kbps
Width                                    : 1 280 pixels
Height                                   : 536 pixels
Display aspect ratio                     : 2.40:1
Frame rate mode                          : Constant
Frame rate                               : 23.976 fps
Stream size                              : 1.01 GiB (92%)
Writing library                          : x264 core 116 r2042 178455c
-----------------------------------------------------------------------------------
Audio
ID                                       : 2
Format                                   : AAC
Format profile                           : LC
Duration                                 : 1h 51mn
Bit rate mode                            : Variable
Bit rate                                 : 112 Kbps
Maximum bit rate                         : 168 Kbps
Channel(s)                               : 2 channels
Channel positions                        : Front: L R
Sampling rate                            : 48.0 KHz
Stream size                              : 90.0 MiB (8%)
Title                                    : LC-AAC Stereo
-----------------------------------------------------------------------------------
Text
ID                                       : 3
Format                                   : Timed text
Duration                                 : 1h 49mn
Bit rate mode                            : Variable
Bit rate                                 : 76 bps
Stream size                              : 60.9 KiB (0%)


Enjoy!!